<?xml version="1.0" encoding="UTF-8"?>
<svg xmlns="http://www.w3.org/2000/svg" xmlns:xlink="http://www.w3.org/1999/xlink" width="375pt" height="374.999991pt" viewBox="0 0 375 374.999991" version="1.2">
<g id="surface1">
<path style=" stroke:none;fill-rule:nonzero;fill:rgb(10.5896%,52.549744%,90.979004%);fill-opacity:1;" d="M 187.539062 0.0195312 C 83.953125 0.0351562 0.0195312 83.972656 0 187.554688 C 0.0195312 291.140625 83.953125 375.074219 187.539062 375.09375 C 291.125 375.074219 375.054688 291.140625 375.078125 187.554688 L 320.976562 187.554688 C 320.964844 224.480469 306.085938 257.683594 281.894531 281.914062 C 257.660156 306.105469 224.476562 320.980469 187.539062 320.996094 C 150.601562 320.980469 117.414062 306.105469 93.183594 281.914062 C 68.988281 257.679688 54.113281 224.480469 54.09375 187.554688 C 54.113281 150.625 68.988281 117.4375 93.183594 93.199219 C 117.414062 69.011719 150.609375 54.128906 187.539062 54.121094 C 189.109375 54.121094 190.632812 54.113281 192.109375 54.105469 L 192.285156 122.769531 L 209.660156 129.378906 C 233.070312 138.328125 249.789062 160.980469 249.753906 187.554688 C 249.6875 221.90625 221.890625 249.707031 187.539062 249.769531 C 153.191406 249.707031 125.390625 221.90625 125.324219 187.554688 L 71.226562 187.554688 C 71.25 251.800781 123.289062 303.84375 187.539062 303.863281 C 251.78125 303.84375 303.828125 251.800781 303.847656 187.554688 C 303.8125 144.75 280.730469 107.332031 246.289062 87.148438 L 246.089844 6.78125 L 224.507812 2.367188 C 213.566406 0.148438 203.820312 0.0195312 195.324219 0 C 192.65625 0.0078125 190.074219 0.0273438 187.539062 0.0195312 Z M 187.539062 0.0195312 "/>
<path style=" stroke:none;fill-rule:nonzero;fill:rgb(20.388794%,89.408875%,92.158508%);fill-opacity:1;" d="M 225.859375 186.65625 C 225.859375 164.992188 208.296875 147.433594 186.636719 147.433594 C 164.976562 147.433594 147.414062 164.992188 147.414062 186.65625 C 147.414062 208.308594 164.976562 225.875 186.636719 225.875 C 208.296875 225.875 225.859375 208.308594 225.859375 186.65625 Z M 225.859375 186.65625 "/>
</g>
</svg>
